<?xml version="1.0" standalone="no"?>
<!DOCTYPE svg PUBLIC "-//W3C//DTD SVG 20010904//EN"
 "http://www.w3.org/TR/2001/REC-SVG-20010904/DTD/svg10.dtd">
<svg version="1.0" xmlns="http://www.w3.org/2000/svg"
 width="150.000000pt" height="150.000000pt" viewBox="0 0 150.000000 150.000000"
 preserveAspectRatio="xMidYMid meet">
<metadata>
Created by potrace 1.16, written by Peter Selinger 2001-2019
</metadata>
<g transform="translate(0.000000,150.000000) scale(0.100000,-0.100000)"
fill="#000000" stroke="none">
<path d="M0 750 l0 -750 750 0 750 0 0 750 0 750 -750 0 -750 0 0 -750z m922
388 c-67 -110 -91 -153 -87 -156 2 -3 20 9 40 27 60 52 70 40 30 -39 -30 -60
-31 -62 -3 -58 14 2 30 18 42 43 18 34 75 85 96 85 3 0 14 -6 24 -13 18 -13
18 -15 1 -51 -28 -60 -69 -83 -142 -84 -72 0 -76 7 -43 73 11 21 18 40 16 42
-2 2 -29 -24 -60 -58 -31 -34 -59 -59 -62 -56 -6 5 97 207 128 249 27 39 44
35 20 -4z m-532 11 c0 -6 -29 -51 -65 -100 -36 -48 -65 -91 -65 -95 0 -3 8 -3
17 0 15 6 15 5 -1 -13 -10 -11 -26 -23 -35 -26 -9 -3 -32 -28 -51 -55 -56 -79
-120 -106 -120 -50 0 24 9 36 42 61 24 17 57 38 73 46 27 14 155 179 163 211
8 32 -119 -21 -177 -73 -50 -46 -53 -80 -8 -80 26 1 27 0 11 -12 -23 -16 -36
-16 -59 0 -38 28 13 105 99 149 80 41 176 61 176 37z m919 -131 c-7 -13 -20
-35 -30 -50 -21 -29 -25 -58 -8 -58 20 0 64 45 61 62 -3 18 34 58 54 58 7 0
19 3 28 6 11 4 16 1 16 -10 0 -10 -8 -16 -21 -16 -26 0 -59 -17 -59 -31 0 -6
9 -8 20 -4 30 10 24 -8 -10 -27 -17 -9 -30 -22 -30 -28 0 -21 30 -22 65 -1 38
22 49 11 13 -13 -16 -10 -46 -14 -98 -13 -87 2 -95 12 -55 71 45 66 22 61 -43
-9 -35 -37 -65 -65 -68 -63 -8 9 48 98 57 92 5 -3 25 8 45 25 19 17 44 31 55
31 17 0 18 -3 8 -22z"/>
</g>
</svg>
